<?xml version="1.0" encoding="utf-8" standalone="no"?>
<!DOCTYPE svg PUBLIC "-//W3C//DTD SVG 1.1//EN"
  "http://www.w3.org/Graphics/SVG/1.1/DTD/svg11.dtd">
<!-- Created with matplotlib (https://matplotlib.org/) -->
<svg height="355.112813pt" version="1.1" viewBox="0 0 408.053125 355.112813" width="408.053125pt" xmlns="http://www.w3.org/2000/svg" xmlns:xlink="http://www.w3.org/1999/xlink">
 <metadata>
  <rdf:RDF xmlns:cc="http://creativecommons.org/ns#" xmlns:dc="http://purl.org/dc/elements/1.1/" xmlns:rdf="http://www.w3.org/1999/02/22-rdf-syntax-ns#">
   <cc:Work>
    <dc:type rdf:resource="http://purl.org/dc/dcmitype/StillImage"/>
    <dc:date>2021-01-10T19:04:19.169361</dc:date>
    <dc:format>image/svg+xml</dc:format>
    <dc:creator>
     <cc:Agent>
      <dc:title>Matplotlib v3.3.3, https://matplotlib.org/</dc:title>
     </cc:Agent>
    </dc:creator>
   </cc:Work>
  </rdf:RDF>
 </metadata>
 <defs>
  <style type="text/css">*{stroke-linecap:butt;stroke-linejoin:round;}</style>
 </defs>
 <g id="figure_1">
  <g id="patch_1">
   <path d="M 0 355.112813 
L 408.053125 355.112813 
L 408.053125 0 
L 0 0 
z
" style="fill:none;"/>
  </g>
  <g id="axes_1">
   <g id="patch_2">
    <path d="M 66.053125 239.758125 
L 400.853125 239.758125 
L 400.853125 22.318125 
L 66.053125 22.318125 
z
" style="fill:#ffffff;"/>
   </g>
   <g id="patch_3">
    <path clip-path="url(#pc62eeccc36)" d="M 70.238125 239.758125 
L 78.608125 239.758125 
L 78.608125 32.672411 
L 70.238125 32.672411 
z
" style="fill:#1f77b4;"/>
   </g>
   <g id="patch_4">
    <path clip-path="url(#pc62eeccc36)" d="M 86.978125 239.758125 
L 95.348125 239.758125 
L 95.348125 197.766014 
L 86.978125 197.766014 
z
" style="fill:#1f77b4;"/>
   </g>
   <g id="patch_5">
    <path clip-path="url(#pc62eeccc36)" d="M 103.718125 239.758125 
L 112.088125 239.758125 
L 112.088125 214.900008 
L 103.718125 214.900008 
z
" style="fill:#1f77b4;"/>
   </g>
   <g id="patch_6">
    <path clip-path="url(#pc62eeccc36)" d="M 120.458125 239.758125 
L 128.828125 239.758125 
L 128.828125 215.601296 
L 120.458125 215.601296 
z
" style="fill:#1f77b4;"/>
   </g>
   <g id="patch_7">
    <path clip-path="url(#pc62eeccc36)" d="M 137.198125 239.758125 
L 145.568125 239.758125 
L 145.568125 217.542559 
L 137.198125 217.542559 
z
" style="fill:#1f77b4;"/>
   </g>
   <g id="patch_8">
    <path clip-path="url(#pc62eeccc36)" d="M 153.938125 239.758125 
L 162.308125 239.758125 
L 162.308125 221.349867 
L 153.938125 221.349867 
z
" style="fill:#1f77b4;"/>
   </g>
   <g id="patch_9">
    <path clip-path="url(#pc62eeccc36)" d="M 170.678125 239.758125 
L 179.048125 239.758125 
L 179.048125 221.64078 
L 170.678125 221.64078 
z
" style="fill:#1f77b4;"/>
   </g>
   <g id="patch_10">
    <path clip-path="url(#pc62eeccc36)" d="M 187.418125 239.758125 
L 195.788125 239.758125 
L 195.788125 226.932518 
L 187.418125 226.932518 
z
" style="fill:#1f77b4;"/>
   </g>
   <g id="patch_11">
    <path clip-path="url(#pc62eeccc36)" d="M 204.158125 239.758125 
L 212.528125 239.758125 
L 212.528125 227.234492 
L 204.158125 227.234492 
z
" style="fill:#1f77b4;"/>
   </g>
   <g id="patch_12">
    <path clip-path="url(#pc62eeccc36)" d="M 220.898125 239.758125 
L 229.268125 239.758125 
L 229.268125 228.887054 
L 220.898125 228.887054 
z
" style="fill:#1f77b4;"/>
   </g>
   <g id="patch_13">
    <path clip-path="url(#pc62eeccc36)" d="M 237.638125 239.758125 
L 246.008125 239.758125 
L 246.008125 229.912439 
L 237.638125 229.912439 
z
" style="fill:#1f77b4;"/>
   </g>
   <g id="patch_14">
    <path clip-path="url(#pc62eeccc36)" d="M 254.378125 239.758125 
L 262.748125 239.758125 
L 262.748125 230.194503 
L 254.378125 230.194503 
z
" style="fill:#1f77b4;"/>
   </g>
   <g id="patch_15">
    <path clip-path="url(#pc62eeccc36)" d="M 271.118125 239.758125 
L 279.488125 239.758125 
L 279.488125 230.561739 
L 271.118125 230.561739 
z
" style="fill:#1f77b4;"/>
   </g>
   <g id="patch_16">
    <path clip-path="url(#pc62eeccc36)" d="M 287.858125 239.758125 
L 296.228125 239.758125 
L 296.228125 231.220994 
L 287.858125 231.220994 
z
" style="fill:#1f77b4;"/>
   </g>
   <g id="patch_17">
    <path clip-path="url(#pc62eeccc36)" d="M 304.598125 239.758125 
L 312.968125 239.758125 
L 312.968125 232.158994 
L 304.598125 232.158994 
z
" style="fill:#1f77b4;"/>
   </g>
   <g id="patch_18">
    <path clip-path="url(#pc62eeccc36)" d="M 321.338125 239.758125 
L 329.708125 239.758125 
L 329.708125 234.39117 
L 321.338125 234.39117 
z
" style="fill:#1f77b4;"/>
   </g>
   <g id="patch_19">
    <path clip-path="url(#pc62eeccc36)" d="M 338.078125 239.758125 
L 346.448125 239.758125 
L 346.448125 234.521693 
L 338.078125 234.521693 
z
" style="fill:#1f77b4;"/>
   </g>
   <g id="patch_20">
    <path clip-path="url(#pc62eeccc36)" d="M 354.818125 239.758125 
L 363.188125 239.758125 
L 363.188125 234.563726 
L 354.818125 234.563726 
z
" style="fill:#1f77b4;"/>
   </g>
   <g id="patch_21">
    <path clip-path="url(#pc62eeccc36)" d="M 371.558125 239.758125 
L 379.928125 239.758125 
L 379.928125 234.788271 
L 371.558125 234.788271 
z
" style="fill:#1f77b4;"/>
   </g>
   <g id="patch_22">
    <path clip-path="url(#pc62eeccc36)" d="M 388.298125 239.758125 
L 396.668125 239.758125 
L 396.668125 234.97742 
L 388.298125 234.97742 
z
" style="fill:#1f77b4;"/>
   </g>
   <g id="matplotlib.axis_1">
    <g id="xtick_1">
     <g id="line2d_1">
      <defs>
       <path d="M 0 0 
L 0 3.5 
" id="mfd0bc90efb" style="stroke:#000000;stroke-width:0.8;"/>
      </defs>
      <g>
       <use style="stroke:#000000;stroke-width:0.8;" x="74.423125" xlink:href="#mfd0bc90efb" y="239.758125"/>
      </g>
     </g>
     <g id="text_1">
      <!-- Dailymail.co.uk -->
      <g transform="translate(77.1825 323.412813)rotate(-90)scale(0.1 -0.1)">
       <defs>
        <path d="M 19.671875 64.796875 
L 19.671875 8.109375 
L 31.59375 8.109375 
Q 46.6875 8.109375 53.6875 14.9375 
Q 60.6875 21.78125 60.6875 36.53125 
Q 60.6875 51.171875 53.6875 57.984375 
Q 46.6875 64.796875 31.59375 64.796875 
z
M 9.8125 72.90625 
L 30.078125 72.90625 
Q 51.265625 72.90625 61.171875 64.09375 
Q 71.09375 55.28125 71.09375 36.53125 
Q 71.09375 17.671875 61.125 8.828125 
Q 51.171875 0 30.078125 0 
L 9.8125 0 
z
" id="DejaVuSans-68"/>
        <path d="M 34.28125 27.484375 
Q 23.390625 27.484375 19.1875 25 
Q 14.984375 22.515625 14.984375 16.5 
Q 14.984375 11.71875 18.140625 8.90625 
Q 21.296875 6.109375 26.703125 6.109375 
Q 34.1875 6.109375 38.703125 11.40625 
Q 43.21875 16.703125 43.21875 25.484375 
L 43.21875 27.484375 
z
M 52.203125 31.203125 
L 52.203125 0 
L 43.21875 0 
L 43.21875 8.296875 
Q 40.140625 3.328125 35.546875 0.953125 
Q 30.953125 -1.421875 24.3125 -1.421875 
Q 15.921875 -1.421875 10.953125 3.296875 
Q 6 8.015625 6 15.921875 
Q 6 25.140625 12.171875 29.828125 
Q 18.359375 34.515625 30.609375 34.515625 
L 43.21875 34.515625 
L 43.21875 35.40625 
Q 43.21875 41.609375 39.140625 45 
Q 35.0625 48.390625 27.6875 48.390625 
Q 23 48.390625 18.546875 47.265625 
Q 14.109375 46.140625 10.015625 43.890625 
L 10.015625 52.203125 
Q 14.9375 54.109375 19.578125 55.046875 
Q 24.21875 56 28.609375 56 
Q 40.484375 56 46.34375 49.84375 
Q 52.203125 43.703125 52.203125 31.203125 
z
" id="DejaVuSans-97"/>
        <path d="M 9.421875 54.6875 
L 18.40625 54.6875 
L 18.40625 0 
L 9.421875 0 
z
M 9.421875 75.984375 
L 18.40625 75.984375 
L 18.40625 64.59375 
L 9.421875 64.59375 
z
" id="DejaVuSans-105"/>
        <path d="M 9.421875 75.984375 
L 18.40625 75.984375 
L 18.40625 0 
L 9.421875 0 
z
" id="DejaVuSans-108"/>
        <path d="M 32.171875 -5.078125 
Q 28.375 -14.84375 24.75 -17.8125 
Q 21.140625 -20.796875 15.09375 -20.796875 
L 7.90625 -20.796875 
L 7.90625 -13.28125 
L 13.1875 -13.28125 
Q 16.890625 -13.28125 18.9375 -11.515625 
Q 21 -9.765625 23.484375 -3.21875 
L 25.09375 0.875 
L 2.984375 54.6875 
L 12.5 54.6875 
L 29.59375 11.921875 
L 46.6875 54.6875 
L 56.203125 54.6875 
z
" id="DejaVuSans-121"/>
        <path d="M 52 44.1875 
Q 55.375 50.25 60.0625 53.125 
Q 64.75 56 71.09375 56 
Q 79.640625 56 84.28125 50.015625 
Q 88.921875 44.046875 88.921875 33.015625 
L 88.921875 0 
L 79.890625 0 
L 79.890625 32.71875 
Q 79.890625 40.578125 77.09375 44.375 
Q 74.3125 48.1875 68.609375 48.1875 
Q 61.625 48.1875 57.5625 43.546875 
Q 53.515625 38.921875 53.515625 30.90625 
L 53.515625 0 
L 44.484375 0 
L 44.484375 32.71875 
Q 44.484375 40.625 41.703125 44.40625 
Q 38.921875 48.1875 33.109375 48.1875 
Q 26.21875 48.1875 22.15625 43.53125 
Q 18.109375 38.875 18.109375 30.90625 
L 18.109375 0 
L 9.078125 0 
L 9.078125 54.6875 
L 18.109375 54.6875 
L 18.109375 46.1875 
Q 21.1875 51.21875 25.484375 53.609375 
Q 29.78125 56 35.6875 56 
Q 41.65625 56 45.828125 52.96875 
Q 50 49.953125 52 44.1875 
z
" id="DejaVuSans-109"/>
        <path d="M 10.6875 12.40625 
L 21 12.40625 
L 21 0 
L 10.6875 0 
z
" id="DejaVuSans-46"/>
        <path d="M 48.78125 52.59375 
L 48.78125 44.1875 
Q 44.96875 46.296875 41.140625 47.34375 
Q 37.3125 48.390625 33.40625 48.390625 
Q 24.65625 48.390625 19.8125 42.84375 
Q 14.984375 37.3125 14.984375 27.296875 
Q 14.984375 17.28125 19.8125 11.734375 
Q 24.65625 6.203125 33.40625 6.203125 
Q 37.3125 6.203125 41.140625 7.25 
Q 44.96875 8.296875 48.78125 10.40625 
L 48.78125 2.09375 
Q 45.015625 0.34375 40.984375 -0.53125 
Q 36.96875 -1.421875 32.421875 -1.421875 
Q 20.0625 -1.421875 12.78125 6.34375 
Q 5.515625 14.109375 5.515625 27.296875 
Q 5.515625 40.671875 12.859375 48.328125 
Q 20.21875 56 33.015625 56 
Q 37.15625 56 41.109375 55.140625 
Q 45.0625 54.296875 48.78125 52.59375 
z
" id="DejaVuSans-99"/>
        <path d="M 30.609375 48.390625 
Q 23.390625 48.390625 19.1875 42.75 
Q 14.984375 37.109375 14.984375 27.296875 
Q 14.984375 17.484375 19.15625 11.84375 
Q 23.34375 6.203125 30.609375 6.203125 
Q 37.796875 6.203125 41.984375 11.859375 
Q 46.1875 17.53125 46.1875 27.296875 
Q 46.1875 37.015625 41.984375 42.703125 
Q 37.796875 48.390625 30.609375 48.390625 
z
M 30.609375 56 
Q 42.328125 56 49.015625 48.375 
Q 55.71875 40.765625 55.71875 27.296875 
Q 55.71875 13.875 49.015625 6.21875 
Q 42.328125 -1.421875 30.609375 -1.421875 
Q 18.84375 -1.421875 12.171875 6.21875 
Q 5.515625 13.875 5.515625 27.296875 
Q 5.515625 40.765625 12.171875 48.375 
Q 18.84375 56 30.609375 56 
z
" id="DejaVuSans-111"/>
        <path d="M 8.5 21.578125 
L 8.5 54.6875 
L 17.484375 54.6875 
L 17.484375 21.921875 
Q 17.484375 14.15625 20.5 10.265625 
Q 23.53125 6.390625 29.59375 6.390625 
Q 36.859375 6.390625 41.078125 11.03125 
Q 45.3125 15.671875 45.3125 23.6875 
L 45.3125 54.6875 
L 54.296875 54.6875 
L 54.296875 0 
L 45.3125 0 
L 45.3125 8.40625 
Q 42.046875 3.421875 37.71875 1 
Q 33.40625 -1.421875 27.6875 -1.421875 
Q 18.265625 -1.421875 13.375 4.4375 
Q 8.5 10.296875 8.5 21.578125 
z
M 31.109375 56 
z
" id="DejaVuSans-117"/>
        <path d="M 9.078125 75.984375 
L 18.109375 75.984375 
L 18.109375 31.109375 
L 44.921875 54.6875 
L 56.390625 54.6875 
L 27.390625 29.109375 
L 57.625 0 
L 45.90625 0 
L 18.109375 26.703125 
L 18.109375 0 
L 9.078125 0 
z
" id="DejaVuSans-107"/>
       </defs>
       <use xlink:href="#DejaVuSans-68"/>
       <use x="77.001953" xlink:href="#DejaVuSans-97"/>
       <use x="138.28125" xlink:href="#DejaVuSans-105"/>
       <use x="166.064453" xlink:href="#DejaVuSans-108"/>
       <use x="193.847656" xlink:href="#DejaVuSans-121"/>
       <use x="253.027344" xlink:href="#DejaVuSans-109"/>
       <use x="350.439453" xlink:href="#DejaVuSans-97"/>
       <use x="411.71875" xlink:href="#DejaVuSans-105"/>
       <use x="439.501953" xlink:href="#DejaVuSans-108"/>
       <use x="467.285156" xlink:href="#DejaVuSans-46"/>
       <use x="499.072266" xlink:href="#DejaVuSans-99"/>
       <use x="554.052734" xlink:href="#DejaVuSans-111"/>
       <use x="613.484375" xlink:href="#DejaVuSans-46"/>
       <use x="645.271484" xlink:href="#DejaVuSans-117"/>
       <use x="708.650391" xlink:href="#DejaVuSans-107"/>
      </g>
     </g>
    </g>
    <g id="xtick_2">
     <g id="line2d_2">
      <g>
       <use style="stroke:#000000;stroke-width:0.8;" x="91.163125" xlink:href="#mfd0bc90efb" y="239.758125"/>
      </g>
     </g>
     <g id="text_2">
      <!-- Theguardian.com -->
      <g transform="translate(93.9225 334.234688)rotate(-90)scale(0.1 -0.1)">
       <defs>
        <path d="M -0.296875 72.90625 
L 61.375 72.90625 
L 61.375 64.59375 
L 35.5 64.59375 
L 35.5 0 
L 25.59375 0 
L 25.59375 64.59375 
L -0.296875 64.59375 
z
" id="DejaVuSans-84"/>
        <path d="M 54.890625 33.015625 
L 54.890625 0 
L 45.90625 0 
L 45.90625 32.71875 
Q 45.90625 40.484375 42.875 44.328125 
Q 39.84375 48.1875 33.796875 48.1875 
Q 26.515625 48.1875 22.3125 43.546875 
Q 18.109375 38.921875 18.109375 30.90625 
L 18.109375 0 
L 9.078125 0 
L 9.078125 75.984375 
L 18.109375 75.984375 
L 18.109375 46.1875 
Q 21.34375 51.125 25.703125 53.5625 
Q 30.078125 56 35.796875 56 
Q 45.21875 56 50.046875 50.171875 
Q 54.890625 44.34375 54.890625 33.015625 
z
" id="DejaVuSans-104"/>
        <path d="M 56.203125 29.59375 
L 56.203125 25.203125 
L 14.890625 25.203125 
Q 15.484375 15.921875 20.484375 11.0625 
Q 25.484375 6.203125 34.421875 6.203125 
Q 39.59375 6.203125 44.453125 7.46875 
Q 49.3125 8.734375 54.109375 11.28125 
L 54.109375 2.78125 
Q 49.265625 0.734375 44.1875 -0.34375 
Q 39.109375 -1.421875 33.890625 -1.421875 
Q 20.796875 -1.421875 13.15625 6.1875 
Q 5.515625 13.8125 5.515625 26.8125 
Q 5.515625 40.234375 12.765625 48.109375 
Q 20.015625 56 32.328125 56 
Q 43.359375 56 49.78125 48.890625 
Q 56.203125 41.796875 56.203125 29.59375 
z
M 47.21875 32.234375 
Q 47.125 39.59375 43.09375 43.984375 
Q 39.0625 48.390625 32.421875 48.390625 
Q 24.90625 48.390625 20.390625 44.140625 
Q 15.875 39.890625 15.1875 32.171875 
z
" id="DejaVuSans-101"/>
        <path d="M 45.40625 27.984375 
Q 45.40625 37.75 41.375 43.109375 
Q 37.359375 48.484375 30.078125 48.484375 
Q 22.859375 48.484375 18.828125 43.109375 
Q 14.796875 37.75 14.796875 27.984375 
Q 14.796875 18.265625 18.828125 12.890625 
Q 22.859375 7.515625 30.078125 7.515625 
Q 37.359375 7.515625 41.375 12.890625 
Q 45.40625 18.265625 45.40625 27.984375 
z
M 54.390625 6.78125 
Q 54.390625 -7.171875 48.1875 -13.984375 
Q 42 -20.796875 29.203125 -20.796875 
Q 24.46875 -20.796875 20.265625 -20.09375 
Q 16.0625 -19.390625 12.109375 -17.921875 
L 12.109375 -9.1875 
Q 16.0625 -11.328125 19.921875 -12.34375 
Q 23.78125 -13.375 27.78125 -13.375 
Q 36.625 -13.375 41.015625 -8.765625 
Q 45.40625 -4.15625 45.40625 5.171875 
L 45.40625 9.625 
Q 42.625 4.78125 38.28125 2.390625 
Q 33.9375 0 27.875 0 
Q 17.828125 0 11.671875 7.65625 
Q 5.515625 15.328125 5.515625 27.984375 
Q 5.515625 40.671875 11.671875 48.328125 
Q 17.828125 56 27.875 56 
Q 33.9375 56 38.28125 53.609375 
Q 42.625 51.21875 45.40625 46.390625 
L 45.40625 54.6875 
L 54.390625 54.6875 
z
" id="DejaVuSans-103"/>
        <path d="M 41.109375 46.296875 
Q 39.59375 47.171875 37.8125 47.578125 
Q 36.03125 48 33.890625 48 
Q 26.265625 48 22.1875 43.046875 
Q 18.109375 38.09375 18.109375 28.8125 
L 18.109375 0 
L 9.078125 0 
L 9.078125 54.6875 
L 18.109375 54.6875 
L 18.109375 46.1875 
Q 20.953125 51.171875 25.484375 53.578125 
Q 30.03125 56 36.53125 56 
Q 37.453125 56 38.578125 55.875 
Q 39.703125 55.765625 41.0625 55.515625 
z
" id="DejaVuSans-114"/>
        <path d="M 45.40625 46.390625 
L 45.40625 75.984375 
L 54.390625 75.984375 
L 54.390625 0 
L 45.40625 0 
L 45.40625 8.203125 
Q 42.578125 3.328125 38.25 0.953125 
Q 33.9375 -1.421875 27.875 -1.421875 
Q 17.96875 -1.421875 11.734375 6.484375 
Q 5.515625 14.40625 5.515625 27.296875 
Q 5.515625 40.1875 11.734375 48.09375 
Q 17.96875 56 27.875 56 
Q 33.9375 56 38.25 53.625 
Q 42.578125 51.265625 45.40625 46.390625 
z
M 14.796875 27.296875 
Q 14.796875 17.390625 18.875 11.75 
Q 22.953125 6.109375 30.078125 6.109375 
Q 37.203125 6.109375 41.296875 11.75 
Q 45.40625 17.390625 45.40625 27.296875 
Q 45.40625 37.203125 41.296875 42.84375 
Q 37.203125 48.484375 30.078125 48.484375 
Q 22.953125 48.484375 18.875 42.84375 
Q 14.796875 37.203125 14.796875 27.296875 
z
" id="DejaVuSans-100"/>
        <path d="M 54.890625 33.015625 
L 54.890625 0 
L 45.90625 0 
L 45.90625 32.71875 
Q 45.90625 40.484375 42.875 44.328125 
Q 39.84375 48.1875 33.796875 48.1875 
Q 26.515625 48.1875 22.3125 43.546875 
Q 18.109375 38.921875 18.109375 30.90625 
L 18.109375 0 
L 9.078125 0 
L 9.078125 54.6875 
L 18.109375 54.6875 
L 18.109375 46.1875 
Q 21.34375 51.125 25.703125 53.5625 
Q 30.078125 56 35.796875 56 
Q 45.21875 56 50.046875 50.171875 
Q 54.890625 44.34375 54.890625 33.015625 
z
" id="DejaVuSans-110"/>
       </defs>
       <use xlink:href="#DejaVuSans-84"/>
       <use x="61.083984" xlink:href="#DejaVuSans-104"/>
       <use x="124.462891" xlink:href="#DejaVuSans-101"/>
       <use x="185.986328" xlink:href="#DejaVuSans-103"/>
       <use x="249.462891" xlink:href="#DejaVuSans-117"/>
       <use x="312.841797" xlink:href="#DejaVuSans-97"/>
       <use x="374.121094" xlink:href="#DejaVuSans-114"/>
       <use x="413.484375" xlink:href="#DejaVuSans-100"/>
       <use x="476.960938" xlink:href="#DejaVuSans-105"/>
       <use x="504.744141" xlink:href="#DejaVuSans-97"/>
       <use x="566.023438" xlink:href="#DejaVuSans-110"/>
       <use x="629.402344" xlink:href="#DejaVuSans-46"/>
       <use x="661.189453" xlink:href="#DejaVuSans-99"/>
       <use x="716.169922" xlink:href="#DejaVuSans-111"/>
       <use x="777.351562" xlink:href="#DejaVuSans-109"/>
      </g>
     </g>
    </g>
    <g id="xtick_3">
     <g id="line2d_3">
      <g>
       <use style="stroke:#000000;stroke-width:0.8;" x="107.903125" xlink:href="#mfd0bc90efb" y="239.758125"/>
      </g>
     </g>
     <g id="text_3">
      <!-- Etsy.com -->
      <g transform="translate(110.6625 291.23625)rotate(-90)scale(0.1 -0.1)">
       <defs>
        <path d="M 9.8125 72.90625 
L 55.90625 72.90625 
L 55.90625 64.59375 
L 19.671875 64.59375 
L 19.671875 43.015625 
L 54.390625 43.015625 
L 54.390625 34.71875 
L 19.671875 34.71875 
L 19.671875 8.296875 
L 56.78125 8.296875 
L 56.78125 0 
L 9.8125 0 
z
" id="DejaVuSans-69"/>
        <path d="M 18.3125 70.21875 
L 18.3125 54.6875 
L 36.8125 54.6875 
L 36.8125 47.703125 
L 18.3125 47.703125 
L 18.3125 18.015625 
Q 18.3125 11.328125 20.140625 9.421875 
Q 21.96875 7.515625 27.59375 7.515625 
L 36.8125 7.515625 
L 36.8125 0 
L 27.59375 0 
Q 17.1875 0 13.234375 3.875 
Q 9.28125 7.765625 9.28125 18.015625 
L 9.28125 47.703125 
L 2.6875 47.703125 
L 2.6875 54.6875 
L 9.28125 54.6875 
L 9.28125 70.21875 
z
" id="DejaVuSans-116"/>
        <path d="M 44.28125 53.078125 
L 44.28125 44.578125 
Q 40.484375 46.53125 36.375 47.5 
Q 32.28125 48.484375 27.875 48.484375 
Q 21.1875 48.484375 17.84375 46.4375 
Q 14.5 44.390625 14.5 40.28125 
Q 14.5 37.15625 16.890625 35.375 
Q 19.28125 33.59375 26.515625 31.984375 
L 29.59375 31.296875 
Q 39.15625 29.25 43.1875 25.515625 
Q 47.21875 21.78125 47.21875 15.09375 
Q 47.21875 7.46875 41.1875 3.015625 
Q 35.15625 -1.421875 24.609375 -1.421875 
Q 20.21875 -1.421875 15.453125 -0.5625 
Q 10.6875 0.296875 5.421875 2 
L 5.421875 11.28125 
Q 10.40625 8.6875 15.234375 7.390625 
Q 20.0625 6.109375 24.8125 6.109375 
Q 31.15625 6.109375 34.5625 8.28125 
Q 37.984375 10.453125 37.984375 14.40625 
Q 37.984375 18.0625 35.515625 20.015625 
Q 33.0625 21.96875 24.703125 23.78125 
L 21.578125 24.515625 
Q 13.234375 26.265625 9.515625 29.90625 
Q 5.8125 33.546875 5.8125 39.890625 
Q 5.8125 47.609375 11.28125 51.796875 
Q 16.75 56 26.8125 56 
Q 31.78125 56 36.171875 55.265625 
Q 40.578125 54.546875 44.28125 53.078125 
z
" id="DejaVuSans-115"/>
       </defs>
       <use xlink:href="#DejaVuSans-69"/>
       <use x="63.183594" xlink:href="#DejaVuSans-116"/>
       <use x="102.392578" xlink:href="#DejaVuSans-115"/>
       <use x="154.492188" xlink:href="#DejaVuSans-121"/>
       <use x="199.421875" xlink:href="#DejaVuSans-46"/>
       <use x="231.208984" xlink:href="#DejaVuSans-99"/>
       <use x="286.189453" xlink:href="#DejaVuSans-111"/>
       <use x="347.371094" xlink:href="#DejaVuSans-109"/>
      </g>
     </g>
    </g>
    <g id="xtick_4">
     <g id="line2d_4">
      <g>
       <use style="stroke:#000000;stroke-width:0.8;" x="124.643125" xlink:href="#mfd0bc90efb" y="239.758125"/>
      </g>
     </g>
     <g id="text_4">
      <!-- Virginmedia.com -->
      <g transform="translate(127.4025 331.23625)rotate(-90)scale(0.1 -0.1)">
       <defs>
        <path d="M 28.609375 0 
L 0.78125 72.90625 
L 11.078125 72.90625 
L 34.1875 11.53125 
L 57.328125 72.90625 
L 67.578125 72.90625 
L 39.796875 0 
z
" id="DejaVuSans-86"/>
       </defs>
       <use xlink:href="#DejaVuSans-86"/>
       <use x="66.158203" xlink:href="#DejaVuSans-105"/>
       <use x="93.941406" xlink:href="#DejaVuSans-114"/>
       <use x="133.304688" xlink:href="#DejaVuSans-103"/>
       <use x="196.78125" xlink:href="#DejaVuSans-105"/>
       <use x="224.564453" xlink:href="#DejaVuSans-110"/>
       <use x="287.943359" xlink:href="#DejaVuSans-109"/>
       <use x="385.355469" xlink:href="#DejaVuSans-101"/>
       <use x="446.878906" xlink:href="#DejaVuSans-100"/>
       <use x="510.355469" xlink:href="#DejaVuSans-105"/>
       <use x="538.138672" xlink:href="#DejaVuSans-97"/>
       <use x="599.417969" xlink:href="#DejaVuSans-46"/>
       <use x="631.205078" xlink:href="#DejaVuSans-99"/>
       <use x="686.185547" xlink:href="#DejaVuSans-111"/>
       <use x="747.367188" xlink:href="#DejaVuSans-109"/>
      </g>
     </g>
    </g>
    <g id="xtick_5">
     <g id="line2d_5">
      <g>
       <use style="stroke:#000000;stroke-width:0.8;" x="141.383125" xlink:href="#mfd0bc90efb" y="239.758125"/>
      </g>
     </g>
     <g id="text_5">
      <!-- Bt.com -->
      <g transform="translate(144.1425 282.075312)rotate(-90)scale(0.1 -0.1)">
       <defs>
        <path d="M 19.671875 34.8125 
L 19.671875 8.109375 
L 35.5 8.109375 
Q 43.453125 8.109375 47.28125 11.40625 
Q 51.125 14.703125 51.125 21.484375 
Q 51.125 28.328125 47.28125 31.5625 
Q 43.453125 34.8125 35.5 34.8125 
z
M 19.671875 64.796875 
L 19.671875 42.828125 
L 34.28125 42.828125 
Q 41.5 42.828125 45.03125 45.53125 
Q 48.578125 48.25 48.578125 53.8125 
Q 48.578125 59.328125 45.03125 62.0625 
Q 41.5 64.796875 34.28125 64.796875 
z
M 9.8125 72.90625 
L 35.015625 72.90625 
Q 46.296875 72.90625 52.390625 68.21875 
Q 58.5 63.53125 58.5 54.890625 
Q 58.5 48.1875 55.375 44.234375 
Q 52.25 40.28125 46.1875 39.3125 
Q 53.46875 37.75 57.5 32.78125 
Q 61.53125 27.828125 61.53125 20.40625 
Q 61.53125 10.640625 54.890625 5.3125 
Q 48.25 0 35.984375 0 
L 9.8125 0 
z
" id="DejaVuSans-66"/>
       </defs>
       <use xlink:href="#DejaVuSans-66"/>
       <use x="68.603516" xlink:href="#DejaVuSans-116"/>
       <use x="107.8125" xlink:href="#DejaVuSans-46"/>
       <use x="139.599609" xlink:href="#DejaVuSans-99"/>
       <use x="194.580078" xlink:href="#DejaVuSans-111"/>
       <use x="255.761719" xlink:href="#DejaVuSans-109"/>
      </g>
     </g>
    </g>
    <g id="xtick_6">
     <g id="line2d_6">
      <g>
       <use style="stroke:#000000;stroke-width:0.8;" x="158.123125" xlink:href="#mfd0bc90efb" y="239.758125"/>
      </g>
     </g>
     <g id="text_6">
      <!-- Aparat.com -->
      <g transform="translate(160.8825 304.770625)rotate(-90)scale(0.1 -0.1)">
       <defs>
        <path d="M 34.1875 63.1875 
L 20.796875 26.90625 
L 47.609375 26.90625 
z
M 28.609375 72.90625 
L 39.796875 72.90625 
L 67.578125 0 
L 57.328125 0 
L 50.6875 18.703125 
L 17.828125 18.703125 
L 11.1875 0 
L 0.78125 0 
z
" id="DejaVuSans-65"/>
        <path d="M 18.109375 8.203125 
L 18.109375 -20.796875 
L 9.078125 -20.796875 
L 9.078125 54.6875 
L 18.109375 54.6875 
L 18.109375 46.390625 
Q 20.953125 51.265625 25.265625 53.625 
Q 29.59375 56 35.59375 56 
Q 45.5625 56 51.78125 48.09375 
Q 58.015625 40.1875 58.015625 27.296875 
Q 58.015625 14.40625 51.78125 6.484375 
Q 45.5625 -1.421875 35.59375 -1.421875 
Q 29.59375 -1.421875 25.265625 0.953125 
Q 20.953125 3.328125 18.109375 8.203125 
z
M 48.6875 27.296875 
Q 48.6875 37.203125 44.609375 42.84375 
Q 40.53125 48.484375 33.40625 48.484375 
Q 26.265625 48.484375 22.1875 42.84375 
Q 18.109375 37.203125 18.109375 27.296875 
Q 18.109375 17.390625 22.1875 11.75 
Q 26.265625 6.109375 33.40625 6.109375 
Q 40.53125 6.109375 44.609375 11.75 
Q 48.6875 17.390625 48.6875 27.296875 
z
" id="DejaVuSans-112"/>
       </defs>
       <use xlink:href="#DejaVuSans-65"/>
       <use x="68.408203" xlink:href="#DejaVuSans-112"/>
       <use x="131.884766" xlink:href="#DejaVuSans-97"/>
       <use x="193.164062" xlink:href="#DejaVuSans-114"/>
       <use x="234.277344" xlink:href="#DejaVuSans-97"/>
       <use x="295.556641" xlink:href="#DejaVuSans-116"/>
       <use x="334.765625" xlink:href="#DejaVuSans-46"/>
       <use x="366.552734" xlink:href="#DejaVuSans-99"/>
       <use x="421.533203" xlink:href="#DejaVuSans-111"/>
       <use x="482.714844" xlink:href="#DejaVuSans-109"/>
      </g>
     </g>
    </g>
    <g id="xtick_7">
     <g id="line2d_7">
      <g>
       <use style="stroke:#000000;stroke-width:0.8;" x="174.863125" xlink:href="#mfd0bc90efb" y="239.758125"/>
      </g>
     </g>
     <g id="text_7">
      <!-- Fandom.com -->
      <g transform="translate(177.6225 310.806563)rotate(-90)scale(0.1 -0.1)">
       <defs>
        <path d="M 9.8125 72.90625 
L 51.703125 72.90625 
L 51.703125 64.59375 
L 19.671875 64.59375 
L 19.671875 43.109375 
L 48.578125 43.109375 
L 48.578125 34.8125 
L 19.671875 34.8125 
L 19.671875 0 
L 9.8125 0 
z
" id="DejaVuSans-70"/>
       </defs>
       <use xlink:href="#DejaVuSans-70"/>
       <use x="48.394531" xlink:href="#DejaVuSans-97"/>
       <use x="109.673828" xlink:href="#DejaVuSans-110"/>
       <use x="173.052734" xlink:href="#DejaVuSans-100"/>
       <use x="236.529297" xlink:href="#DejaVuSans-111"/>
       <use x="297.710938" xlink:href="#DejaVuSans-109"/>
       <use x="395.123047" xlink:href="#DejaVuSans-46"/>
       <use x="426.910156" xlink:href="#DejaVuSans-99"/>
       <use x="481.890625" xlink:href="#DejaVuSans-111"/>
       <use x="543.072266" xlink:href="#DejaVuSans-109"/>
      </g>
     </g>
    </g>
    <g id="xtick_8">
     <g id="line2d_8">
      <g>
       <use style="stroke:#000000;stroke-width:0.8;" x="191.603125" xlink:href="#mfd0bc90efb" y="239.758125"/>
      </g>
     </g>
     <g id="text_8">
      <!-- Trustpilot.com -->
      <g transform="translate(194.3625 317.44875)rotate(-90)scale(0.1 -0.1)">
       <use xlink:href="#DejaVuSans-84"/>
       <use x="46.333984" xlink:href="#DejaVuSans-114"/>
       <use x="87.447266" xlink:href="#DejaVuSans-117"/>
       <use x="150.826172" xlink:href="#DejaVuSans-115"/>
       <use x="202.925781" xlink:href="#DejaVuSans-116"/>
       <use x="242.134766" xlink:href="#DejaVuSans-112"/>
       <use x="305.611328" xlink:href="#DejaVuSans-105"/>
       <use x="333.394531" xlink:href="#DejaVuSans-108"/>
       <use x="361.177734" xlink:href="#DejaVuSans-111"/>
       <use x="422.359375" xlink:href="#DejaVuSans-116"/>
       <use x="461.568359" xlink:href="#DejaVuSans-46"/>
       <use x="493.355469" xlink:href="#DejaVuSans-99"/>
       <use x="548.335938" xlink:href="#DejaVuSans-111"/>
       <use x="609.517578" xlink:href="#DejaVuSans-109"/>
      </g>
     </g>
    </g>
    <g id="xtick_9">
     <g id="line2d_9">
      <g>
       <use style="stroke:#000000;stroke-width:0.8;" x="208.343125" xlink:href="#mfd0bc90efb" y="239.758125"/>
      </g>
     </g>
     <g id="text_9">
      <!-- Yahoo.com -->
      <g transform="translate(211.1025 300.555)rotate(-90)scale(0.1 -0.1)">
       <defs>
        <path d="M -0.203125 72.90625 
L 10.40625 72.90625 
L 30.609375 42.921875 
L 50.6875 72.90625 
L 61.28125 72.90625 
L 35.5 34.71875 
L 35.5 0 
L 25.59375 0 
L 25.59375 34.71875 
z
" id="DejaVuSans-89"/>
       </defs>
       <use xlink:href="#DejaVuSans-89"/>
       <use x="47.333984" xlink:href="#DejaVuSans-97"/>
       <use x="108.613281" xlink:href="#DejaVuSans-104"/>
       <use x="171.992188" xlink:href="#DejaVuSans-111"/>
       <use x="233.173828" xlink:href="#DejaVuSans-111"/>
       <use x="292.605469" xlink:href="#DejaVuSans-46"/>
       <use x="324.392578" xlink:href="#DejaVuSans-99"/>
       <use x="379.373047" xlink:href="#DejaVuSans-111"/>
       <use x="440.554688" xlink:href="#DejaVuSans-109"/>
      </g>
     </g>
    </g>
    <g id="xtick_10">
     <g id="line2d_10">
      <g>
       <use style="stroke:#000000;stroke-width:0.8;" x="225.083125" xlink:href="#mfd0bc90efb" y="239.758125"/>
      </g>
     </g>
     <g id="text_10">
      <!-- Sportbible.com -->
      <g transform="translate(227.8425 322.547188)rotate(-90)scale(0.1 -0.1)">
       <defs>
        <path d="M 53.515625 70.515625 
L 53.515625 60.890625 
Q 47.90625 63.578125 42.921875 64.890625 
Q 37.9375 66.21875 33.296875 66.21875 
Q 25.25 66.21875 20.875 63.09375 
Q 16.5 59.96875 16.5 54.203125 
Q 16.5 49.359375 19.40625 46.890625 
Q 22.3125 44.4375 30.421875 42.921875 
L 36.375 41.703125 
Q 47.40625 39.59375 52.65625 34.296875 
Q 57.90625 29 57.90625 20.125 
Q 57.90625 9.515625 50.796875 4.046875 
Q 43.703125 -1.421875 29.984375 -1.421875 
Q 24.8125 -1.421875 18.96875 -0.25 
Q 13.140625 0.921875 6.890625 3.21875 
L 6.890625 13.375 
Q 12.890625 10.015625 18.65625 8.296875 
Q 24.421875 6.59375 29.984375 6.59375 
Q 38.421875 6.59375 43.015625 9.90625 
Q 47.609375 13.234375 47.609375 19.390625 
Q 47.609375 24.75 44.3125 27.78125 
Q 41.015625 30.8125 33.5 32.328125 
L 27.484375 33.5 
Q 16.453125 35.6875 11.515625 40.375 
Q 6.59375 45.0625 6.59375 53.421875 
Q 6.59375 63.09375 13.40625 68.65625 
Q 20.21875 74.21875 32.171875 74.21875 
Q 37.3125 74.21875 42.625 73.28125 
Q 47.953125 72.359375 53.515625 70.515625 
z
" id="DejaVuSans-83"/>
        <path d="M 48.6875 27.296875 
Q 48.6875 37.203125 44.609375 42.84375 
Q 40.53125 48.484375 33.40625 48.484375 
Q 26.265625 48.484375 22.1875 42.84375 
Q 18.109375 37.203125 18.109375 27.296875 
Q 18.109375 17.390625 22.1875 11.75 
Q 26.265625 6.109375 33.40625 6.109375 
Q 40.53125 6.109375 44.609375 11.75 
Q 48.6875 17.390625 48.6875 27.296875 
z
M 18.109375 46.390625 
Q 20.953125 51.265625 25.265625 53.625 
Q 29.59375 56 35.59375 56 
Q 45.5625 56 51.78125 48.09375 
Q 58.015625 40.1875 58.015625 27.296875 
Q 58.015625 14.40625 51.78125 6.484375 
Q 45.5625 -1.421875 35.59375 -1.421875 
Q 29.59375 -1.421875 25.265625 0.953125 
Q 20.953125 3.328125 18.109375 8.203125 
L 18.109375 0 
L 9.078125 0 
L 9.078125 75.984375 
L 18.109375 75.984375 
z
" id="DejaVuSans-98"/>
       </defs>
       <use xlink:href="#DejaVuSans-83"/>
       <use x="63.476562" xlink:href="#DejaVuSans-112"/>
       <use x="126.953125" xlink:href="#DejaVuSans-111"/>
       <use x="188.134766" xlink:href="#DejaVuSans-114"/>
       <use x="229.248047" xlink:href="#DejaVuSans-116"/>
       <use x="268.457031" xlink:href="#DejaVuSans-98"/>
       <use x="331.933594" xlink:href="#DejaVuSans-105"/>
       <use x="359.716797" xlink:href="#DejaVuSans-98"/>
       <use x="423.193359" xlink:href="#DejaVuSans-108"/>
       <use x="450.976562" xlink:href="#DejaVuSans-101"/>
       <use x="512.5" xlink:href="#DejaVuSans-46"/>
       <use x="544.287109" xlink:href="#DejaVuSans-99"/>
       <use x="599.267578" xlink:href="#DejaVuSans-111"/>
       <use x="660.449219" xlink:href="#DejaVuSans-109"/>
      </g>
     </g>
    </g>
    <g id="xtick_11">
     <g id="line2d_11">
      <g>
       <use style="stroke:#000000;stroke-width:0.8;" x="241.823125" xlink:href="#mfd0bc90efb" y="239.758125"/>
      </g>
     </g>
     <g id="text_11">
      <!-- Ok.ru -->
      <g transform="translate(244.5825 274.047188)rotate(-90)scale(0.1 -0.1)">
       <defs>
        <path d="M 39.40625 66.21875 
Q 28.65625 66.21875 22.328125 58.203125 
Q 16.015625 50.203125 16.015625 36.375 
Q 16.015625 22.609375 22.328125 14.59375 
Q 28.65625 6.59375 39.40625 6.59375 
Q 50.140625 6.59375 56.421875 14.59375 
Q 62.703125 22.609375 62.703125 36.375 
Q 62.703125 50.203125 56.421875 58.203125 
Q 50.140625 66.21875 39.40625 66.21875 
z
M 39.40625 74.21875 
Q 54.734375 74.21875 63.90625 63.9375 
Q 73.09375 53.65625 73.09375 36.375 
Q 73.09375 19.140625 63.90625 8.859375 
Q 54.734375 -1.421875 39.40625 -1.421875 
Q 24.03125 -1.421875 14.8125 8.828125 
Q 5.609375 19.09375 5.609375 36.375 
Q 5.609375 53.65625 14.8125 63.9375 
Q 24.03125 74.21875 39.40625 74.21875 
z
" id="DejaVuSans-79"/>
       </defs>
       <use xlink:href="#DejaVuSans-79"/>
       <use x="78.710938" xlink:href="#DejaVuSans-107"/>
       <use x="136.621094" xlink:href="#DejaVuSans-46"/>
       <use x="168.408203" xlink:href="#DejaVuSans-114"/>
       <use x="209.521484" xlink:href="#DejaVuSans-117"/>
      </g>
     </g>
    </g>
    <g id="xtick_12">
     <g id="line2d_12">
      <g>
       <use style="stroke:#000000;stroke-width:0.8;" x="258.563125" xlink:href="#mfd0bc90efb" y="239.758125"/>
      </g>
     </g>
     <g id="text_12">
      <!-- Ladbible.com -->
      <g transform="translate(261.3225 313.74875)rotate(-90)scale(0.1 -0.1)">
       <defs>
        <path d="M 9.8125 72.90625 
L 19.671875 72.90625 
L 19.671875 8.296875 
L 55.171875 8.296875 
L 55.171875 0 
L 9.8125 0 
z
" id="DejaVuSans-76"/>
       </defs>
       <use xlink:href="#DejaVuSans-76"/>
       <use x="55.712891" xlink:href="#DejaVuSans-97"/>
       <use x="116.992188" xlink:href="#DejaVuSans-100"/>
       <use x="180.46875" xlink:href="#DejaVuSans-98"/>
       <use x="243.945312" xlink:href="#DejaVuSans-105"/>
       <use x="271.728516" xlink:href="#DejaVuSans-98"/>
       <use x="335.205078" xlink:href="#DejaVuSans-108"/>
       <use x="362.988281" xlink:href="#DejaVuSans-101"/>
       <use x="424.511719" xlink:href="#DejaVuSans-46"/>
       <use x="456.298828" xlink:href="#DejaVuSans-99"/>
       <use x="511.279297" xlink:href="#DejaVuSans-111"/>
       <use x="572.460938" xlink:href="#DejaVuSans-109"/>
      </g>
     </g>
    </g>
    <g id="xtick_13">
     <g id="line2d_13">
      <g>
       <use style="stroke:#000000;stroke-width:0.8;" x="275.303125" xlink:href="#mfd0bc90efb" y="239.758125"/>
      </g>
     </g>
     <g id="text_13">
      <!-- Bbc.co.uk -->
      <g transform="translate(278.0625 295.3925)rotate(-90)scale(0.1 -0.1)">
       <use xlink:href="#DejaVuSans-66"/>
       <use x="68.603516" xlink:href="#DejaVuSans-98"/>
       <use x="132.080078" xlink:href="#DejaVuSans-99"/>
       <use x="187.060547" xlink:href="#DejaVuSans-46"/>
       <use x="218.847656" xlink:href="#DejaVuSans-99"/>
       <use x="273.828125" xlink:href="#DejaVuSans-111"/>
       <use x="333.259766" xlink:href="#DejaVuSans-46"/>
       <use x="365.046875" xlink:href="#DejaVuSans-117"/>
       <use x="428.425781" xlink:href="#DejaVuSans-107"/>
      </g>
     </g>
    </g>
    <g id="xtick_14">
     <g id="line2d_14">
      <g>
       <use style="stroke:#000000;stroke-width:0.8;" x="292.043125" xlink:href="#mfd0bc90efb" y="239.758125"/>
      </g>
     </g>
     <g id="text_14">
      <!-- Zoom.us -->
      <g transform="translate(294.8025 290.31125)rotate(-90)scale(0.1 -0.1)">
       <defs>
        <path d="M 5.609375 72.90625 
L 62.890625 72.90625 
L 62.890625 65.375 
L 16.796875 8.296875 
L 64.015625 8.296875 
L 64.015625 0 
L 4.5 0 
L 4.5 7.515625 
L 50.59375 64.59375 
L 5.609375 64.59375 
z
" id="DejaVuSans-90"/>
       </defs>
       <use xlink:href="#DejaVuSans-90"/>
       <use x="68.505859" xlink:href="#DejaVuSans-111"/>
       <use x="129.6875" xlink:href="#DejaVuSans-111"/>
       <use x="190.869141" xlink:href="#DejaVuSans-109"/>
       <use x="288.28125" xlink:href="#DejaVuSans-46"/>
       <use x="320.068359" xlink:href="#DejaVuSans-117"/>
       <use x="383.447266" xlink:href="#DejaVuSans-115"/>
      </g>
     </g>
    </g>
    <g id="xtick_15">
     <g id="line2d_15">
      <g>
       <use style="stroke:#000000;stroke-width:0.8;" x="308.783125" xlink:href="#mfd0bc90efb" y="239.758125"/>
      </g>
     </g>
     <g id="text_15">
      <!-- Argos.co.uk -->
      <g transform="translate(311.5425 305.137812)rotate(-90)scale(0.1 -0.1)">
       <use xlink:href="#DejaVuSans-65"/>
       <use x="68.408203" xlink:href="#DejaVuSans-114"/>
       <use x="107.771484" xlink:href="#DejaVuSans-103"/>
       <use x="171.248047" xlink:href="#DejaVuSans-111"/>
       <use x="232.429688" xlink:href="#DejaVuSans-115"/>
       <use x="284.529297" xlink:href="#DejaVuSans-46"/>
       <use x="316.316406" xlink:href="#DejaVuSans-99"/>
       <use x="371.296875" xlink:href="#DejaVuSans-111"/>
       <use x="430.728516" xlink:href="#DejaVuSans-46"/>
       <use x="462.515625" xlink:href="#DejaVuSans-117"/>
       <use x="525.894531" xlink:href="#DejaVuSans-107"/>
      </g>
     </g>
    </g>
    <g id="xtick_16">
     <g id="line2d_16">
      <g>
       <use style="stroke:#000000;stroke-width:0.8;" x="325.523125" xlink:href="#mfd0bc90efb" y="239.758125"/>
      </g>
     </g>
     <g id="text_16">
      <!-- Rightmove.co.uk -->
      <g transform="translate(328.2825 330.94875)rotate(-90)scale(0.1 -0.1)">
       <defs>
        <path d="M 44.390625 34.1875 
Q 47.5625 33.109375 50.5625 29.59375 
Q 53.5625 26.078125 56.59375 19.921875 
L 66.609375 0 
L 56 0 
L 46.6875 18.703125 
Q 43.0625 26.03125 39.671875 28.421875 
Q 36.28125 30.8125 30.421875 30.8125 
L 19.671875 30.8125 
L 19.671875 0 
L 9.8125 0 
L 9.8125 72.90625 
L 32.078125 72.90625 
Q 44.578125 72.90625 50.734375 67.671875 
Q 56.890625 62.453125 56.890625 51.90625 
Q 56.890625 45.015625 53.6875 40.46875 
Q 50.484375 35.9375 44.390625 34.1875 
z
M 19.671875 64.796875 
L 19.671875 38.921875 
L 32.078125 38.921875 
Q 39.203125 38.921875 42.84375 42.21875 
Q 46.484375 45.515625 46.484375 51.90625 
Q 46.484375 58.296875 42.84375 61.546875 
Q 39.203125 64.796875 32.078125 64.796875 
z
" id="DejaVuSans-82"/>
        <path d="M 2.984375 54.6875 
L 12.5 54.6875 
L 29.59375 8.796875 
L 46.6875 54.6875 
L 56.203125 54.6875 
L 35.6875 0 
L 23.484375 0 
z
" id="DejaVuSans-118"/>
       </defs>
       <use xlink:href="#DejaVuSans-82"/>
       <use x="69.482422" xlink:href="#DejaVuSans-105"/>
       <use x="97.265625" xlink:href="#DejaVuSans-103"/>
       <use x="160.742188" xlink:href="#DejaVuSans-104"/>
       <use x="224.121094" xlink:href="#DejaVuSans-116"/>
       <use x="263.330078" xlink:href="#DejaVuSans-109"/>
       <use x="360.742188" xlink:href="#DejaVuSans-111"/>
       <use x="421.923828" xlink:href="#DejaVuSans-118"/>
       <use x="481.103516" xlink:href="#DejaVuSans-101"/>
       <use x="542.626953" xlink:href="#DejaVuSans-46"/>
       <use x="574.414062" xlink:href="#DejaVuSans-99"/>
       <use x="629.394531" xlink:href="#DejaVuSans-111"/>
       <use x="688.826172" xlink:href="#DejaVuSans-46"/>
       <use x="720.613281" xlink:href="#DejaVuSans-117"/>
       <use x="783.992188" xlink:href="#DejaVuSans-107"/>
      </g>
     </g>
    </g>
    <g id="xtick_17">
     <g id="line2d_17">
      <g>
       <use style="stroke:#000000;stroke-width:0.8;" x="342.263125" xlink:href="#mfd0bc90efb" y="239.758125"/>
      </g>
     </g>
     <g id="text_17">
      <!-- Ebay.co.uk -->
      <g transform="translate(345.0225 299.97375)rotate(-90)scale(0.1 -0.1)">
       <use xlink:href="#DejaVuSans-69"/>
       <use x="63.183594" xlink:href="#DejaVuSans-98"/>
       <use x="126.660156" xlink:href="#DejaVuSans-97"/>
       <use x="187.939453" xlink:href="#DejaVuSans-121"/>
       <use x="232.869141" xlink:href="#DejaVuSans-46"/>
       <use x="264.65625" xlink:href="#DejaVuSans-99"/>
       <use x="319.636719" xlink:href="#DejaVuSans-111"/>
       <use x="379.068359" xlink:href="#DejaVuSans-46"/>
       <use x="410.855469" xlink:href="#DejaVuSans-117"/>
       <use x="474.234375" xlink:href="#DejaVuSans-107"/>
      </g>
     </g>
    </g>
    <g id="xtick_18">
     <g id="line2d_18">
      <g>
       <use style="stroke:#000000;stroke-width:0.8;" x="359.003125" xlink:href="#mfd0bc90efb" y="239.758125"/>
      </g>
     </g>
     <g id="text_18">
      <!-- Currys.co.uk -->
      <g transform="translate(361.7625 309.18)rotate(-90)scale(0.1 -0.1)">
       <defs>
        <path d="M 64.40625 67.28125 
L 64.40625 56.890625 
Q 59.421875 61.53125 53.78125 63.8125 
Q 48.140625 66.109375 41.796875 66.109375 
Q 29.296875 66.109375 22.65625 58.46875 
Q 16.015625 50.828125 16.015625 36.375 
Q 16.015625 21.96875 22.65625 14.328125 
Q 29.296875 6.6875 41.796875 6.6875 
Q 48.140625 6.6875 53.78125 8.984375 
Q 59.421875 11.28125 64.40625 15.921875 
L 64.40625 5.609375 
Q 59.234375 2.09375 53.4375 0.328125 
Q 47.65625 -1.421875 41.21875 -1.421875 
Q 24.65625 -1.421875 15.125 8.703125 
Q 5.609375 18.84375 5.609375 36.375 
Q 5.609375 53.953125 15.125 64.078125 
Q 24.65625 74.21875 41.21875 74.21875 
Q 47.75 74.21875 53.53125 72.484375 
Q 59.328125 70.75 64.40625 67.28125 
z
" id="DejaVuSans-67"/>
       </defs>
       <use xlink:href="#DejaVuSans-67"/>
       <use x="69.824219" xlink:href="#DejaVuSans-117"/>
       <use x="133.203125" xlink:href="#DejaVuSans-114"/>
       <use x="172.566406" xlink:href="#DejaVuSans-114"/>
       <use x="213.679688" xlink:href="#DejaVuSans-121"/>
       <use x="272.859375" xlink:href="#DejaVuSans-115"/>
       <use x="324.958984" xlink:href="#DejaVuSans-46"/>
       <use x="356.746094" xlink:href="#DejaVuSans-99"/>
       <use x="411.726562" xlink:href="#DejaVuSans-111"/>
       <use x="471.158203" xlink:href="#DejaVuSans-46"/>
       <use x="502.945312" xlink:href="#DejaVuSans-117"/>
       <use x="566.324219" xlink:href="#DejaVuSans-107"/>
      </g>
     </g>
    </g>
    <g id="xtick_19">
     <g id="line2d_19">
      <g>
       <use style="stroke:#000000;stroke-width:0.8;" x="375.743125" xlink:href="#mfd0bc90efb" y="239.758125"/>
      </g>
     </g>
     <g id="text_19">
      <!-- Netflix.com -->
      <g transform="translate(378.5025 303.844063)rotate(-90)scale(0.1 -0.1)">
       <defs>
        <path d="M 9.8125 72.90625 
L 23.09375 72.90625 
L 55.421875 11.921875 
L 55.421875 72.90625 
L 64.984375 72.90625 
L 64.984375 0 
L 51.703125 0 
L 19.390625 60.984375 
L 19.390625 0 
L 9.8125 0 
z
" id="DejaVuSans-78"/>
        <path d="M 37.109375 75.984375 
L 37.109375 68.5 
L 28.515625 68.5 
Q 23.6875 68.5 21.796875 66.546875 
Q 19.921875 64.59375 19.921875 59.515625 
L 19.921875 54.6875 
L 34.71875 54.6875 
L 34.71875 47.703125 
L 19.921875 47.703125 
L 19.921875 0 
L 10.890625 0 
L 10.890625 47.703125 
L 2.296875 47.703125 
L 2.296875 54.6875 
L 10.890625 54.6875 
L 10.890625 58.5 
Q 10.890625 67.625 15.140625 71.796875 
Q 19.390625 75.984375 28.609375 75.984375 
z
" id="DejaVuSans-102"/>
        <path d="M 54.890625 54.6875 
L 35.109375 28.078125 
L 55.90625 0 
L 45.3125 0 
L 29.390625 21.484375 
L 13.484375 0 
L 2.875 0 
L 24.125 28.609375 
L 4.6875 54.6875 
L 15.28125 54.6875 
L 29.78125 35.203125 
L 44.28125 54.6875 
z
" id="DejaVuSans-120"/>
       </defs>
       <use xlink:href="#DejaVuSans-78"/>
       <use x="74.804688" xlink:href="#DejaVuSans-101"/>
       <use x="136.328125" xlink:href="#DejaVuSans-116"/>
       <use x="175.537109" xlink:href="#DejaVuSans-102"/>
       <use x="210.742188" xlink:href="#DejaVuSans-108"/>
       <use x="238.525391" xlink:href="#DejaVuSans-105"/>
       <use x="266.308594" xlink:href="#DejaVuSans-120"/>
       <use x="325.488281" xlink:href="#DejaVuSans-46"/>
       <use x="357.275391" xlink:href="#DejaVuSans-99"/>
       <use x="412.255859" xlink:href="#DejaVuSans-111"/>
       <use x="473.4375" xlink:href="#DejaVuSans-109"/>
      </g>
     </g>
    </g>
    <g id="xtick_20">
     <g id="line2d_20">
      <g>
       <use style="stroke:#000000;stroke-width:0.8;" x="392.483125" xlink:href="#mfd0bc90efb" y="239.758125"/>
      </g>
     </g>
     <g id="text_20">
      <!-- Hotukdeals.com -->
      <g transform="translate(395.2425 327.59875)rotate(-90)scale(0.1 -0.1)">
       <defs>
        <path d="M 9.8125 72.90625 
L 19.671875 72.90625 
L 19.671875 43.015625 
L 55.515625 43.015625 
L 55.515625 72.90625 
L 65.375 72.90625 
L 65.375 0 
L 55.515625 0 
L 55.515625 34.71875 
L 19.671875 34.71875 
L 19.671875 0 
L 9.8125 0 
z
" id="DejaVuSans-72"/>
       </defs>
       <use xlink:href="#DejaVuSans-72"/>
       <use x="75.195312" xlink:href="#DejaVuSans-111"/>
       <use x="136.376953" xlink:href="#DejaVuSans-116"/>
       <use x="175.585938" xlink:href="#DejaVuSans-117"/>
       <use x="238.964844" xlink:href="#DejaVuSans-107"/>
       <use x="296.875" xlink:href="#DejaVuSans-100"/>
       <use x="360.351562" xlink:href="#DejaVuSans-101"/>
       <use x="421.875" xlink:href="#DejaVuSans-97"/>
       <use x="483.154297" xlink:href="#DejaVuSans-108"/>
       <use x="510.9375" xlink:href="#DejaVuSans-115"/>
       <use x="563.037109" xlink:href="#DejaVuSans-46"/>
       <use x="594.824219" xlink:href="#DejaVuSans-99"/>
       <use x="649.804688" xlink:href="#DejaVuSans-111"/>
       <use x="710.986328" xlink:href="#DejaVuSans-109"/>
      </g>
     </g>
    </g>
    <g id="text_21">
     <!-- Website -->
     <g transform="translate(213.521875 345.833125)scale(0.1 -0.1)">
      <defs>
       <path d="M 3.328125 72.90625 
L 13.28125 72.90625 
L 28.609375 11.28125 
L 43.890625 72.90625 
L 54.984375 72.90625 
L 70.3125 11.28125 
L 85.59375 72.90625 
L 95.609375 72.90625 
L 77.296875 0 
L 64.890625 0 
L 49.515625 63.28125 
L 33.984375 0 
L 21.578125 0 
z
" id="DejaVuSans-87"/>
      </defs>
      <use xlink:href="#DejaVuSans-87"/>
      <use x="93.001953" xlink:href="#DejaVuSans-101"/>
      <use x="154.525391" xlink:href="#DejaVuSans-98"/>
      <use x="218.001953" xlink:href="#DejaVuSans-115"/>
      <use x="270.101562" xlink:href="#DejaVuSans-105"/>
      <use x="297.884766" xlink:href="#DejaVuSans-116"/>
      <use x="337.09375" xlink:href="#DejaVuSans-101"/>
     </g>
    </g>
   </g>
   <g id="matplotlib.axis_2">
    <g id="ytick_1">
     <g id="line2d_21">
      <defs>
       <path d="M 0 0 
L -3.5 0 
" id="m8faa08c6e6" style="stroke:#000000;stroke-width:0.8;"/>
      </defs>
      <g>
       <use style="stroke:#000000;stroke-width:0.8;" x="66.053125" xlink:href="#m8faa08c6e6" y="239.758125"/>
      </g>
     </g>
     <g id="text_22">
      <!-- 0 -->
      <g transform="translate(52.690625 243.557344)scale(0.1 -0.1)">
       <defs>
        <path d="M 31.78125 66.40625 
Q 24.171875 66.40625 20.328125 58.90625 
Q 16.5 51.421875 16.5 36.375 
Q 16.5 21.390625 20.328125 13.890625 
Q 24.171875 6.390625 31.78125 6.390625 
Q 39.453125 6.390625 43.28125 13.890625 
Q 47.125 21.390625 47.125 36.375 
Q 47.125 51.421875 43.28125 58.90625 
Q 39.453125 66.40625 31.78125 66.40625 
z
M 31.78125 74.21875 
Q 44.046875 74.21875 50.515625 64.515625 
Q 56.984375 54.828125 56.984375 36.375 
Q 56.984375 17.96875 50.515625 8.265625 
Q 44.046875 -1.421875 31.78125 -1.421875 
Q 19.53125 -1.421875 13.0625 8.265625 
Q 6.59375 17.96875 6.59375 36.375 
Q 6.59375 54.828125 13.0625 64.515625 
Q 19.53125 74.21875 31.78125 74.21875 
z
" id="DejaVuSans-48"/>
       </defs>
       <use xlink:href="#DejaVuSans-48"/>
      </g>
     </g>
    </g>
    <g id="ytick_2">
     <g id="line2d_22">
      <g>
       <use style="stroke:#000000;stroke-width:0.8;" x="66.053125" xlink:href="#m8faa08c6e6" y="212.104811"/>
      </g>
     </g>
     <g id="text_23">
      <!-- 25000 -->
      <g transform="translate(27.240625 215.90403)scale(0.1 -0.1)">
       <defs>
        <path d="M 19.1875 8.296875 
L 53.609375 8.296875 
L 53.609375 0 
L 7.328125 0 
L 7.328125 8.296875 
Q 12.9375 14.109375 22.625 23.890625 
Q 32.328125 33.6875 34.8125 36.53125 
Q 39.546875 41.84375 41.421875 45.53125 
Q 43.3125 49.21875 43.3125 52.78125 
Q 43.3125 58.59375 39.234375 62.25 
Q 35.15625 65.921875 28.609375 65.921875 
Q 23.96875 65.921875 18.8125 64.3125 
Q 13.671875 62.703125 7.8125 59.421875 
L 7.8125 69.390625 
Q 13.765625 71.78125 18.9375 73 
Q 24.125 74.21875 28.421875 74.21875 
Q 39.75 74.21875 46.484375 68.546875 
Q 53.21875 62.890625 53.21875 53.421875 
Q 53.21875 48.921875 51.53125 44.890625 
Q 49.859375 40.875 45.40625 35.40625 
Q 44.1875 33.984375 37.640625 27.21875 
Q 31.109375 20.453125 19.1875 8.296875 
z
" id="DejaVuSans-50"/>
        <path d="M 10.796875 72.90625 
L 49.515625 72.90625 
L 49.515625 64.59375 
L 19.828125 64.59375 
L 19.828125 46.734375 
Q 21.96875 47.46875 24.109375 47.828125 
Q 26.265625 48.1875 28.421875 48.1875 
Q 40.625 48.1875 47.75 41.5 
Q 54.890625 34.8125 54.890625 23.390625 
Q 54.890625 11.625 47.5625 5.09375 
Q 40.234375 -1.421875 26.90625 -1.421875 
Q 22.3125 -1.421875 17.546875 -0.640625 
Q 12.796875 0.140625 7.71875 1.703125 
L 7.71875 11.625 
Q 12.109375 9.234375 16.796875 8.0625 
Q 21.484375 6.890625 26.703125 6.890625 
Q 35.15625 6.890625 40.078125 11.328125 
Q 45.015625 15.765625 45.015625 23.390625 
Q 45.015625 31 40.078125 35.4375 
Q 35.15625 39.890625 26.703125 39.890625 
Q 22.75 39.890625 18.8125 39.015625 
Q 14.890625 38.140625 10.796875 36.28125 
z
" id="DejaVuSans-53"/>
       </defs>
       <use xlink:href="#DejaVuSans-50"/>
       <use x="63.623047" xlink:href="#DejaVuSans-53"/>
       <use x="127.246094" xlink:href="#DejaVuSans-48"/>
       <use x="190.869141" xlink:href="#DejaVuSans-48"/>
       <use x="254.492188" xlink:href="#DejaVuSans-48"/>
      </g>
     </g>
    </g>
    <g id="ytick_3">
     <g id="line2d_23">
      <g>
       <use style="stroke:#000000;stroke-width:0.8;" x="66.053125" xlink:href="#m8faa08c6e6" y="184.451497"/>
      </g>
     </g>
     <g id="text_24">
      <!-- 50000 -->
      <g transform="translate(27.240625 188.250716)scale(0.1 -0.1)">
       <use xlink:href="#DejaVuSans-53"/>
       <use x="63.623047" xlink:href="#DejaVuSans-48"/>
       <use x="127.246094" xlink:href="#DejaVuSans-48"/>
       <use x="190.869141" xlink:href="#DejaVuSans-48"/>
       <use x="254.492188" xlink:href="#DejaVuSans-48"/>
      </g>
     </g>
    </g>
    <g id="ytick_4">
     <g id="line2d_24">
      <g>
       <use style="stroke:#000000;stroke-width:0.8;" x="66.053125" xlink:href="#m8faa08c6e6" y="156.798183"/>
      </g>
     </g>
     <g id="text_25">
      <!-- 75000 -->
      <g transform="translate(27.240625 160.597401)scale(0.1 -0.1)">
       <defs>
        <path d="M 8.203125 72.90625 
L 55.078125 72.90625 
L 55.078125 68.703125 
L 28.609375 0 
L 18.3125 0 
L 43.21875 64.59375 
L 8.203125 64.59375 
z
" id="DejaVuSans-55"/>
       </defs>
       <use xlink:href="#DejaVuSans-55"/>
       <use x="63.623047" xlink:href="#DejaVuSans-53"/>
       <use x="127.246094" xlink:href="#DejaVuSans-48"/>
       <use x="190.869141" xlink:href="#DejaVuSans-48"/>
       <use x="254.492188" xlink:href="#DejaVuSans-48"/>
      </g>
     </g>
    </g>
    <g id="ytick_5">
     <g id="line2d_25">
      <g>
       <use style="stroke:#000000;stroke-width:0.8;" x="66.053125" xlink:href="#m8faa08c6e6" y="129.144869"/>
      </g>
     </g>
     <g id="text_26">
      <!-- 100000 -->
      <g transform="translate(20.878125 132.944087)scale(0.1 -0.1)">
       <defs>
        <path d="M 12.40625 8.296875 
L 28.515625 8.296875 
L 28.515625 63.921875 
L 10.984375 60.40625 
L 10.984375 69.390625 
L 28.421875 72.90625 
L 38.28125 72.90625 
L 38.28125 8.296875 
L 54.390625 8.296875 
L 54.390625 0 
L 12.40625 0 
z
" id="DejaVuSans-49"/>
       </defs>
       <use xlink:href="#DejaVuSans-49"/>
       <use x="63.623047" xlink:href="#DejaVuSans-48"/>
       <use x="127.246094" xlink:href="#DejaVuSans-48"/>
       <use x="190.869141" xlink:href="#DejaVuSans-48"/>
       <use x="254.492188" xlink:href="#DejaVuSans-48"/>
       <use x="318.115234" xlink:href="#DejaVuSans-48"/>
      </g>
     </g>
    </g>
    <g id="ytick_6">
     <g id="line2d_26">
      <g>
       <use style="stroke:#000000;stroke-width:0.8;" x="66.053125" xlink:href="#m8faa08c6e6" y="101.491554"/>
      </g>
     </g>
     <g id="text_27">
      <!-- 125000 -->
      <g transform="translate(20.878125 105.290773)scale(0.1 -0.1)">
       <use xlink:href="#DejaVuSans-49"/>
       <use x="63.623047" xlink:href="#DejaVuSans-50"/>
       <use x="127.246094" xlink:href="#DejaVuSans-53"/>
       <use x="190.869141" xlink:href="#DejaVuSans-48"/>
       <use x="254.492188" xlink:href="#DejaVuSans-48"/>
       <use x="318.115234" xlink:href="#DejaVuSans-48"/>
      </g>
     </g>
    </g>
    <g id="ytick_7">
     <g id="line2d_27">
      <g>
       <use style="stroke:#000000;stroke-width:0.8;" x="66.053125" xlink:href="#m8faa08c6e6" y="73.83824"/>
      </g>
     </g>
     <g id="text_28">
      <!-- 150000 -->
      <g transform="translate(20.878125 77.637459)scale(0.1 -0.1)">
       <use xlink:href="#DejaVuSans-49"/>
       <use x="63.623047" xlink:href="#DejaVuSans-53"/>
       <use x="127.246094" xlink:href="#DejaVuSans-48"/>
       <use x="190.869141" xlink:href="#DejaVuSans-48"/>
       <use x="254.492188" xlink:href="#DejaVuSans-48"/>
       <use x="318.115234" xlink:href="#DejaVuSans-48"/>
      </g>
     </g>
    </g>
    <g id="ytick_8">
     <g id="line2d_28">
      <g>
       <use style="stroke:#000000;stroke-width:0.8;" x="66.053125" xlink:href="#m8faa08c6e6" y="46.184926"/>
      </g>
     </g>
     <g id="text_29">
      <!-- 175000 -->
      <g transform="translate(20.878125 49.984145)scale(0.1 -0.1)">
       <use xlink:href="#DejaVuSans-49"/>
       <use x="63.623047" xlink:href="#DejaVuSans-55"/>
       <use x="127.246094" xlink:href="#DejaVuSans-53"/>
       <use x="190.869141" xlink:href="#DejaVuSans-48"/>
       <use x="254.492188" xlink:href="#DejaVuSans-48"/>
       <use x="318.115234" xlink:href="#DejaVuSans-48"/>
      </g>
     </g>
    </g>
    <g id="text_30">
     <!-- Total words -->
     <g transform="translate(14.798438 159.199063)rotate(-90)scale(0.1 -0.1)">
      <defs>
       <path id="DejaVuSans-32"/>
       <path d="M 4.203125 54.6875 
L 13.1875 54.6875 
L 24.421875 12.015625 
L 35.59375 54.6875 
L 46.1875 54.6875 
L 57.421875 12.015625 
L 68.609375 54.6875 
L 77.59375 54.6875 
L 63.28125 0 
L 52.6875 0 
L 40.921875 44.828125 
L 29.109375 0 
L 18.5 0 
z
" id="DejaVuSans-119"/>
      </defs>
      <use xlink:href="#DejaVuSans-84"/>
      <use x="44.083984" xlink:href="#DejaVuSans-111"/>
      <use x="105.265625" xlink:href="#DejaVuSans-116"/>
      <use x="144.474609" xlink:href="#DejaVuSans-97"/>
      <use x="205.753906" xlink:href="#DejaVuSans-108"/>
      <use x="233.537109" xlink:href="#DejaVuSans-32"/>
      <use x="265.324219" xlink:href="#DejaVuSans-119"/>
      <use x="347.111328" xlink:href="#DejaVuSans-111"/>
      <use x="408.292969" xlink:href="#DejaVuSans-114"/>
      <use x="447.65625" xlink:href="#DejaVuSans-100"/>
      <use x="511.132812" xlink:href="#DejaVuSans-115"/>
     </g>
    </g>
   </g>
   <g id="patch_23">
    <path d="M 66.053125 239.758125 
L 66.053125 22.318125 
" style="fill:none;stroke:#000000;stroke-linecap:square;stroke-linejoin:miter;stroke-width:0.8;"/>
   </g>
   <g id="patch_24">
    <path d="M 400.853125 239.758125 
L 400.853125 22.318125 
" style="fill:none;stroke:#000000;stroke-linecap:square;stroke-linejoin:miter;stroke-width:0.8;"/>
   </g>
   <g id="patch_25">
    <path d="M 66.053125 239.758125 
L 400.853125 239.758125 
" style="fill:none;stroke:#000000;stroke-linecap:square;stroke-linejoin:miter;stroke-width:0.8;"/>
   </g>
   <g id="patch_26">
    <path d="M 66.053125 22.318125 
L 400.853125 22.318125 
" style="fill:none;stroke:#000000;stroke-linecap:square;stroke-linejoin:miter;stroke-width:0.8;"/>
   </g>
   <g id="text_31">
    <!-- Total words per website -->
    <g transform="translate(162.634375 16.318125)scale(0.12 -0.12)">
     <use xlink:href="#DejaVuSans-84"/>
     <use x="44.083984" xlink:href="#DejaVuSans-111"/>
     <use x="105.265625" xlink:href="#DejaVuSans-116"/>
     <use x="144.474609" xlink:href="#DejaVuSans-97"/>
     <use x="205.753906" xlink:href="#DejaVuSans-108"/>
     <use x="233.537109" xlink:href="#DejaVuSans-32"/>
     <use x="265.324219" xlink:href="#DejaVuSans-119"/>
     <use x="347.111328" xlink:href="#DejaVuSans-111"/>
     <use x="408.292969" xlink:href="#DejaVuSans-114"/>
     <use x="447.65625" xlink:href="#DejaVuSans-100"/>
     <use x="511.132812" xlink:href="#DejaVuSans-115"/>
     <use x="563.232422" xlink:href="#DejaVuSans-32"/>
     <use x="595.019531" xlink:href="#DejaVuSans-112"/>
     <use x="658.496094" xlink:href="#DejaVuSans-101"/>
     <use x="720.019531" xlink:href="#DejaVuSans-114"/>
     <use x="761.132812" xlink:href="#DejaVuSans-32"/>
     <use x="792.919922" xlink:href="#DejaVuSans-119"/>
     <use x="874.707031" xlink:href="#DejaVuSans-101"/>
     <use x="936.230469" xlink:href="#DejaVuSans-98"/>
     <use x="999.707031" xlink:href="#DejaVuSans-115"/>
     <use x="1051.806641" xlink:href="#DejaVuSans-105"/>
     <use x="1079.589844" xlink:href="#DejaVuSans-116"/>
     <use x="1118.798828" xlink:href="#DejaVuSans-101"/>
    </g>
   </g>
   <g id="legend_1">
    <g id="patch_27">
     <path d="M 318.671875 45.274375 
L 393.853125 45.274375 
Q 395.853125 45.274375 395.853125 43.274375 
L 395.853125 29.318125 
Q 395.853125 27.318125 393.853125 27.318125 
L 318.671875 27.318125 
Q 316.671875 27.318125 316.671875 29.318125 
L 316.671875 43.274375 
Q 316.671875 45.274375 318.671875 45.274375 
z
" style="fill:#ffffff;opacity:0.8;stroke:#cccccc;stroke-linejoin:miter;"/>
    </g>
    <g id="patch_28">
     <path d="M 320.671875 38.916562 
L 340.671875 38.916562 
L 340.671875 31.916562 
L 320.671875 31.916562 
z
" style="fill:#1f77b4;"/>
    </g>
    <g id="text_32">
     <!-- all_sums -->
     <g transform="translate(348.671875 38.916562)scale(0.1 -0.1)">
      <defs>
       <path d="M 50.984375 -16.609375 
L 50.984375 -23.578125 
L -0.984375 -23.578125 
L -0.984375 -16.609375 
z
" id="DejaVuSans-95"/>
      </defs>
      <use xlink:href="#DejaVuSans-97"/>
      <use x="61.279297" xlink:href="#DejaVuSans-108"/>
      <use x="89.0625" xlink:href="#DejaVuSans-108"/>
      <use x="116.845703" xlink:href="#DejaVuSans-95"/>
      <use x="166.845703" xlink:href="#DejaVuSans-115"/>
      <use x="218.945312" xlink:href="#DejaVuSans-117"/>
      <use x="282.324219" xlink:href="#DejaVuSans-109"/>
      <use x="379.736328" xlink:href="#DejaVuSans-115"/>
     </g>
    </g>
   </g>
  </g>
 </g>
 <defs>
  <clipPath id="pc62eeccc36">
   <rect height="217.44" width="334.8" x="66.053125" y="22.318125"/>
  </clipPath>
 </defs>
</svg>
